<?xml version="1.0" standalone="no"?>
<!DOCTYPE svg PUBLIC "-//W3C//DTD SVG 20010904//EN" "http://www.w3.org/TR/2001/REC-SVG-20010904/DTD/svg10.dtd">
<!-- Created using Krita: https://krita.org -->
<svg xmlns="http://www.w3.org/2000/svg" 
    xmlns:xlink="http://www.w3.org/1999/xlink"
    xmlns:krita="http://krita.org/namespaces/svg/krita"
    xmlns:sodipodi="http://sodipodi.sourceforge.net/DTD/sodipodi-0.dtd"
    width="182.4pt"
    height="153.6pt"
    viewBox="0 0 182.4 153.6">
<defs/>
<rect id="shape0" transform="matrix(0.961706783431714 0 0 0.984336086812891 7.105427357601e-15 0)" fill="none" stroke-opacity="0" stroke="#000000" stroke-width="0" stroke-linecap="square" stroke-linejoin="bevel" width="189.662798622602" height="156.044263801534"/><circle id="shape01" transform="translate(4.8, 28.8)" r="19.2" cx="19.2" cy="19.2" fill="#fff48d" fill-rule="evenodd" stroke="#fff48d" stroke-width="9.6" stroke-linecap="square" stroke-linejoin="bevel"/><circle id="shape02" transform="translate(139.2, 86.4)" r="19.2" cx="19.2" cy="19.2" fill="#fff48d" fill-rule="evenodd" stroke="#fff48d" stroke-width="9.6" stroke-linecap="square" stroke-linejoin="bevel"/><path id="shape03" transform="matrix(0.477273547835096 -0.878754778386384 0.878754778386384 0.477273547835096 6.0768296818107 48.9530965228105)" fill="#d7cc6d" fill-rule="evenodd" stroke-opacity="0" stroke="#000000" stroke-width="0" stroke-linecap="square" stroke-linejoin="bevel" d="M0.00138221 11.0212C7.10163 11.5982 11.124 10.8601 19.2014 11.0212C19.239 -3.74135 -0.188452 -3.60597 0.00138221 11.0212Z" sodipodi:nodetypes="ccc"/><path id="shape04" transform="matrix(-0.307980387979897 0.951392705784395 -0.951392705784395 -0.307980387979897 175.105061409395 99.9965450596988)" fill="#d7cc6d" fill-rule="evenodd" stroke-opacity="0" stroke="#000000" stroke-width="0" stroke-linecap="square" stroke-linejoin="bevel" d="M0.00138221 11.0212C7.10163 11.5982 11.124 10.8601 19.2014 11.0212C19.239 -3.74135 -0.188452 -3.60597 0.00138221 11.0212Z" sodipodi:nodetypes="ccc"/><circle id="shape05" transform="matrix(0.984615386960444 0 0 0.984517860905514 19.1261521452553 4.7409026364556)" r="73.2" cx="73.2" cy="73.2" fill="#fff48d" fill-rule="evenodd" stroke="#fff48d" stroke-width="9.6" stroke-linecap="square" stroke-linejoin="bevel"/><ellipse id="shape06" transform="matrix(0.830194302875585 0.557474142425388 -0.557474142425388 0.830194302875585 64.9029644136718 75.465818837821)" rx="24" ry="14.4" cx="24" cy="14.4" fill="#d7cc6d" fill-rule="evenodd" stroke="#d7cc6d" stroke-width="9.6" stroke-linecap="square" stroke-linejoin="bevel"/><ellipse id="shape07" transform="matrix(0.797148453833099 0.603783357299205 -0.603783357299205 0.797148453833099 72.285283476665 76.032626061964)" rx="18.84" ry="16.8" cx="18.84" cy="16.8" fill="#958f54" fill-rule="evenodd" stroke-opacity="0" stroke="#000000" stroke-width="0" stroke-linecap="square" stroke-linejoin="bevel"/><path id="shape08" transform="matrix(0.880022172669669 0.474932601123313 -0.474932601123313 0.880022172669669 72.371771183211 93.396828892527)" fill="#7c413d" fill-rule="evenodd" stroke-opacity="0" stroke="#000000" stroke-width="0" stroke-linecap="square" stroke-linejoin="bevel" d="M28.8 14.1418C28.8 7.5144 22.5301 4.44089e-16 14.5772 0C6.62427 -4.44089e-16 9.73949e-16 7.5144 0 14.1418C-9.73949e-16 20.7692 7.11875 21.5508 15.0717 21.5508C23.0246 21.5508 28.8 20.7692 28.8 14.1418Z" sodipodi:nodetypes="ccccc"/><path id="shape09" transform="matrix(0.880022172669669 0.474932601123313 -0.474932601123313 0.880022172669669 77.4475032333462 100.167778808522)" fill="#99615d" fill-rule="evenodd" stroke-opacity="0" stroke="#000000" stroke-width="0" stroke-linecap="square" stroke-linejoin="bevel" d="M21.9979 9.85512C18.2078 6.78315 15.5307 8.81216 12.0416 7.44737C7.98625 5.86105 3.87476 3.45202 0.313548 0C-1.27574 1.59597 3.64458 14.6573 4.61818 17.1344C11.0758 19.3887 23.4792 16.1494 21.9979 9.85512Z" sodipodi:nodetypes="ccccc"/><path id="shape010" transform="matrix(0.880022172669669 0.474932601123313 -0.474932601123313 0.880022172669669 61.7145526405934 88.801675015612)" fill="#99615d" fill-rule="evenodd" stroke-opacity="0" stroke="#000000" stroke-width="0" stroke-linecap="square" stroke-linejoin="bevel" d="M24.529 16.214C24.529 9.58663 22.3529 4.05812e-16 14.4 0C6.4471 -4.05812e-16 9.73949e-16 5.37258 0 12C-9.73949e-16 18.6274 8.12785 20.7734 16.0807 20.7734C24.0336 20.7734 24.529 22.8415 24.529 16.214Z" sodipodi:nodetypes="ccccc"/><path id="shape011" transform="matrix(-0.999983473269297 -0.00574919022854429 0.00574919022854429 -0.999983473269297 71.9325842850682 90.3465843344625)" fill="#ffffff" fill-rule="evenodd" stroke-opacity="0" stroke="#000000" stroke-width="0" stroke-linecap="square" stroke-linejoin="bevel" d="M0.000941402 11.8899C4.88224 12.4669 9.55915 12.1563 13.3268 10.2286C13.3527 -4.53402 -0.129566 -2.73734 0.000941402 11.8899Z" sodipodi:nodetypes="ccc"/><path id="shape012" transform="matrix(0.998122398890255 -0.0612509333281891 0.0612509333281891 0.998122398890255 85.4331091316917 113.740703578334)" fill="#ffffff" fill-rule="evenodd" stroke-opacity="0" stroke="#000000" stroke-width="0" stroke-linecap="square" stroke-linejoin="bevel" d="M0.357661 9.9574C5.23896 10.5344 8.80949 8.53555 12.2006 7.01977C11.2366 -5.3328 -2.3565 0.524969 0.357661 9.9574Z" sodipodi:nodetypes="ccc"/><path id="shape013" transform="matrix(-0.808771259072526 -0.739382254552807 -0.683248245522026 0.73070376868909 66.1387948356013 102.551766647638)" fill="#ffffff" fill-rule="evenodd" stroke-opacity="0" stroke="#000000" stroke-width="0" stroke-linecap="square" stroke-linejoin="bevel" d="M0.357661 9.9574C5.23896 10.5344 8.80949 8.53555 12.2006 7.01977C11.2366 -5.3328 -2.3565 0.524969 0.357661 9.9574Z" sodipodi:nodetypes="ccc"/><path id="shape014" transform="matrix(0.992417852056897 0.122909751113532 -0.122909751113532 0.992417852056897 75.2968862379504 110.92449501023)" fill="#ffffff" fill-rule="evenodd" stroke-opacity="0" stroke="#000000" stroke-width="0" stroke-linecap="square" stroke-linejoin="bevel" d="M0 10.2165C4.8813 10.7935 8.10101 11.6557 12.5782 11.2253C12.9993 -3.68979 2.16255 -3.45226 0 10.2165Z" sodipodi:nodetypes="ccc"/><path id="shape015" transform="matrix(1.34907816112503 0.486116044054333 -0.338995967452139 0.940787826266469 86.932494462346 47.2902969761261)" fill="none" stroke="#d7cc6d" stroke-width="4.8" stroke-linecap="square" stroke-linejoin="bevel" d="M0 4.91634C6.14039 -1.63878 12.4615 -1.63878 18.9633 4.91634" sodipodi:nodetypes="cc"/><circle id="shape016" transform="translate(83.28, 54.72)" r="4.8" cx="4.8" cy="4.8" fill="#958f54" fill-rule="evenodd" stroke-opacity="0" stroke="#000000" stroke-width="0" stroke-linecap="square" stroke-linejoin="bevel"/><circle id="shape017" transform="translate(100.8, 62.16)" r="4.8" cx="4.8" cy="4.8" fill="#958f54" fill-rule="evenodd" stroke-opacity="0" stroke="#000000" stroke-width="0" stroke-linecap="square" stroke-linejoin="bevel"/><circle id="shape018" transform="translate(31.2000000000001, 37.1999999999999)" r="19.2" cx="19.2" cy="19.2" fill="#ded175" fill-rule="evenodd" stroke="#ded175" stroke-width="9.6" stroke-linecap="square" stroke-linejoin="bevel"/><circle id="shape019" transform="translate(113.52, 66)" r="19.2" cx="19.2" cy="19.2" fill="#ded175" fill-rule="evenodd" stroke="#ded175" stroke-width="9.6" stroke-linecap="square" stroke-linejoin="bevel"/><circle id="shape020" transform="translate(33.6, 33.6)" r="19.2" cx="19.2" cy="19.2" fill="#ffffff" fill-rule="evenodd" stroke="#ffffff" stroke-width="9.6" stroke-linecap="square" stroke-linejoin="bevel"/><circle id="shape021" transform="translate(43.2, 38.4)" r="12" cx="12" cy="12" fill="#000000" fill-rule="evenodd" stroke="#000000" stroke-width="9.6" stroke-linecap="square" stroke-linejoin="bevel"/><circle id="shape022" transform="translate(116.16, 62.4)" r="19.2" cx="19.2" cy="19.2" fill="#ffffff" fill-rule="evenodd" stroke="#ffffff" stroke-width="9.6" stroke-linecap="square" stroke-linejoin="bevel"/><circle id="shape023" transform="translate(124.8, 67.2)" r="12" cx="12" cy="12" fill="#000000" fill-rule="evenodd" stroke="#000000" stroke-width="9.6" stroke-linecap="square" stroke-linejoin="bevel"/>
</svg>
